<svg width="80" height="70" viewBox="0 0 80 70" fill="none" xmlns="http://www.w3.org/2000/svg">
<path d="M24.8906 38.5078C24.7188 38.8672 24.5 39.2969 24.2344 39.7969C23.9844 40.2812 23.6953 40.7891 23.3672 41.3203C23.0391 41.8516 22.6719 42.3828 22.2656 42.9141C21.8594 43.4297 21.4141 43.8984 20.9297 44.3203C20.4609 44.7266 19.9531 45.0547 19.4062 45.3047C18.875 45.5703 18.3047 45.7031 17.6953 45.7031C17.0234 45.7031 16.4141 45.5469 15.8672 45.2344C15.3359 44.9375 14.8594 44.5234 14.4375 43.9922C14.0156 43.4453 13.6484 42.8125 13.3359 42.0938C13.0234 41.3594 12.75 40.5781 12.5156 39.75C12.1406 40.4375 11.6797 41.1328 11.1328 41.8359C10.6016 42.5391 9.97656 43.2266 9.25781 43.8984C8.55469 44.5703 7.74219 45.2188 6.82031 45.8438C5.91406 46.4688 4.89844 47.0391 3.77344 47.5547C4.61719 48.4297 5.35156 49.3984 5.97656 50.4609C6.60156 51.5391 7.11719 52.6562 7.52344 53.8125C7.94531 54.9688 8.25781 56.1328 8.46094 57.3047C8.67969 58.4922 8.78906 59.625 8.78906 60.7031C8.78906 61.6875 8.69531 62.6094 8.50781 63.4688C8.33594 64.3438 8.07031 65.1016 7.71094 65.7422C7.36719 66.3828 6.94531 66.8828 6.44531 67.2422C5.94531 67.6172 5.375 67.8047 4.73438 67.8047C3.79688 67.8047 3.07031 67.4531 2.55469 66.75C2.03906 66.0625 1.65625 65.1016 1.40625 63.8672C1.17188 62.6484 1.03125 61.2031 0.984375 59.5312C0.953125 57.875 0.9375 56.0703 0.9375 54.1172C0.9375 53.1484 0.9375 52.0156 0.9375 50.7188C0.9375 49.4375 0.9375 48.0547 0.9375 46.5703C0.953125 45.1016 0.960938 43.5625 0.960938 41.9531C0.976562 40.3281 0.992188 38.7031 1.00781 37.0781C1.02344 35.4531 1.03906 33.8594 1.05469 32.2969C1.07031 30.7188 1.09375 29.2266 1.125 27.8203C1.17188 25.1328 1.26562 22.7344 1.40625 20.625C1.54688 18.5156 1.77344 16.7344 2.08594 15.2812C2.39844 13.8281 2.82031 12.7266 3.35156 11.9766C3.89844 11.2109 4.58594 10.8281 5.41406 10.8281C6.07031 10.8281 6.625 11.0156 7.07812 11.3906C7.53125 11.75 7.89844 12.2422 8.17969 12.8672C8.46094 13.4766 8.66406 14.1953 8.78906 15.0234C8.91406 15.8516 8.97656 16.7188 8.97656 17.625C8.97656 19.5312 8.8125 21.375 8.48438 23.1562C8.15625 24.9375 7.71094 26.6641 7.14844 28.3359C6.58594 30.0078 5.92188 31.6406 5.15625 33.2344C4.40625 34.8281 3.60156 36.3984 2.74219 37.9453C2.74219 38.5859 2.74219 39.2812 2.74219 40.0312C2.74219 40.7656 2.74219 41.5078 2.74219 42.2578C2.74219 42.9922 2.73438 43.7031 2.71875 44.3906C2.71875 45.0625 2.71875 45.6484 2.71875 46.1484C3.875 45.6328 4.92188 45.0391 5.85938 44.3672C6.8125 43.6953 7.65625 42.9922 8.39062 42.2578C9.14062 41.5078 9.77344 40.75 10.2891 39.9844C10.8203 39.2031 11.2422 38.4609 11.5547 37.7578C11.6484 37.5547 11.7969 37.4062 12 37.3125C11.7344 35.8125 11.5625 34.3281 11.4844 32.8594C11.4062 31.375 11.3672 30.0781 11.3672 28.9688C11.3672 27.6562 11.4062 26.2969 11.4844 24.8906C11.5781 23.4844 11.7188 22.1094 11.9062 20.7656C12.0938 19.4219 12.3281 18.1484 12.6094 16.9453C12.9062 15.7422 13.25 14.6875 13.6406 13.7812C14.0469 12.875 14.5078 12.1563 15.0234 11.625C15.5391 11.0937 16.125 10.8281 16.7812 10.8281C17.2969 10.8281 17.7578 10.9531 18.1641 11.2031C18.5859 11.4375 18.9375 11.8281 19.2188 12.375C19.5 12.9219 19.7188 13.6328 19.875 14.5078C20.0312 15.3828 20.1094 16.4531 20.1094 17.7188C20.1094 19.2812 19.9453 20.8984 19.6172 22.5703C19.2891 24.2266 18.8438 25.8984 18.2812 27.5859C17.7188 29.2734 17.0547 30.9609 16.2891 32.6484C15.5234 34.3203 14.7031 35.9531 13.8281 37.5469C14.2188 39.5312 14.7422 41.0938 15.3984 42.2344C16.0547 43.3594 16.8438 43.9219 17.7656 43.9219C18.3906 43.9219 18.9922 43.6797 19.5703 43.1953C20.1484 42.6953 20.6797 42.1094 21.1641 41.4375C21.6484 40.7656 22.0703 40.0859 22.4297 39.3984C22.8047 38.6953 23.0938 38.1328 23.2969 37.7109C23.375 37.5547 23.4844 37.4375 23.625 37.3594C23.7656 37.2656 23.9219 37.2188 24.0938 37.2188C24.3594 37.2188 24.5703 37.3125 24.7266 37.5C24.8984 37.6875 24.9844 37.8984 24.9844 38.1328C24.9844 38.2266 24.9531 38.3516 24.8906 38.5078ZM13.1484 29.0859C13.1484 30.0859 13.1719 31.0469 13.2188 31.9688C13.2656 32.8906 13.3281 33.7734 13.4062 34.6172C14.0625 33.3516 14.6875 32.0078 15.2812 30.5859C15.875 29.1484 16.3984 27.7031 16.8516 26.25C17.3047 24.7812 17.6641 23.3281 17.9297 21.8906C18.2109 20.4375 18.3516 19.0547 18.3516 17.7422C18.3516 15.8984 18.2031 14.5781 17.9062 13.7812C17.6094 12.9844 17.2109 12.5859 16.7109 12.5859C16.3828 12.5859 16.0625 12.8125 15.75 13.2656C15.4531 13.7187 15.1719 14.3359 14.9062 15.1172C14.6406 15.8984 14.3984 16.8203 14.1797 17.8828C13.9609 18.9453 13.7734 20.0859 13.6172 21.3047C13.4766 22.5234 13.3594 23.7969 13.2656 25.125C13.1875 26.4531 13.1484 27.7734 13.1484 29.0859ZM2.78906 34.3359C3.42969 33.1328 4.01562 31.8672 4.54688 30.5391C5.09375 29.1953 5.5625 27.8125 5.95312 26.3906C6.34375 24.9688 6.64844 23.5156 6.86719 22.0312C7.08594 20.5469 7.19531 19.0547 7.19531 17.5547C7.19531 16.8047 7.15625 16.125 7.07812 15.5156C7.01562 14.9062 6.90625 14.3906 6.75 13.9688C6.60938 13.5312 6.42188 13.1953 6.1875 12.9609C5.96875 12.7109 5.71094 12.5859 5.41406 12.5859C5.10156 12.5859 4.82812 12.7734 4.59375 13.1484C4.35938 13.5234 4.15625 14.0234 3.98438 14.6484C3.8125 15.2734 3.66406 15.9922 3.53906 16.8047C3.42969 17.6172 3.33594 18.4688 3.25781 19.3594C3.17969 20.2344 3.11719 21.1172 3.07031 22.0078C3.02344 22.8828 2.98438 23.7109 2.95312 24.4922C2.9375 25.2578 2.92188 25.9375 2.90625 26.5312C2.90625 27.125 2.90625 27.5703 2.90625 27.8672C2.89062 28.4922 2.875 29.0469 2.85938 29.5312C2.85938 30.0156 2.85156 30.4922 2.83594 30.9609C2.82031 31.4297 2.80469 31.9297 2.78906 32.4609C2.78906 32.9922 2.78906 33.6172 2.78906 34.3359ZM2.71875 49.0312C2.71875 50.0156 2.71094 50.9297 2.69531 51.7734C2.69531 52.6328 2.69531 53.4141 2.69531 54.1172C2.69531 55.5703 2.70312 57.0078 2.71875 58.4297C2.73438 59.8516 2.80469 61.125 2.92969 62.25C3.07031 63.3906 3.27344 64.3047 3.53906 64.9922C3.82031 65.6953 4.21875 66.0469 4.73438 66.0469C5.20312 66.0469 5.58594 65.8359 5.88281 65.4141C6.17969 64.9922 6.40625 64.4922 6.5625 63.9141C6.73438 63.3359 6.85156 62.7422 6.91406 62.1328C6.97656 61.5391 7.00781 61.0547 7.00781 60.6797C7.00781 59.7266 6.91406 58.7266 6.72656 57.6797C6.55469 56.6328 6.28125 55.5938 5.90625 54.5625C5.54688 53.5469 5.10156 52.5625 4.57031 51.6094C4.03906 50.6562 3.42188 49.7969 2.71875 49.0312ZM26.1094 42.4219C26.4375 42.875 26.8594 43.2422 27.375 43.5234C27.8906 43.7891 28.5234 43.9219 29.2734 43.9219C30.0391 43.9219 30.7344 43.7422 31.3594 43.3828C31.9844 43.0078 32.5547 42.5234 33.0703 41.9297C33.5859 41.3359 34.0469 40.6719 34.4531 39.9375C34.8594 39.2031 35.2266 38.4688 35.5547 37.7344C35.6328 37.5625 35.7422 37.4375 35.8828 37.3594C36.0234 37.2656 36.1797 37.2188 36.3516 37.2188C36.6172 37.2188 36.8281 37.3125 36.9844 37.5C37.1562 37.6875 37.2422 37.8906 37.2422 38.1094C37.2422 38.1875 37.2344 38.2578 37.2188 38.3203C37.2031 38.3672 37.1797 38.4219 37.1484 38.4844C36.0703 40.8594 34.8906 42.6484 33.6094 43.8516C32.3438 45.0547 30.9062 45.6719 29.2969 45.7031C28.2656 45.7031 27.375 45.5 26.625 45.0938C25.875 44.7031 25.2578 44.1953 24.7734 43.5703C24.2891 42.9297 23.9297 42.2109 23.6953 41.4141C23.4609 40.6172 23.3438 39.8203 23.3438 39.0234C23.3438 38.2266 23.4375 37.4922 23.625 36.8203C23.8281 36.1484 24.1094 35.5625 24.4688 35.0625C24.8438 34.5625 25.2812 34.1719 25.7812 33.8906C26.2969 33.6094 26.8594 33.4688 27.4688 33.4688C27.8281 33.4688 28.1797 33.5469 28.5234 33.7031C28.8828 33.8438 29.2031 34.0547 29.4844 34.3359C29.7656 34.6016 29.9922 34.9297 30.1641 35.3203C30.3359 35.7109 30.4219 36.1562 30.4219 36.6562C30.4219 37.2969 30.3125 37.8984 30.0938 38.4609C29.875 39.0234 29.5703 39.5469 29.1797 40.0312C28.8047 40.5156 28.3516 40.9609 27.8203 41.3672C27.2891 41.7734 26.7188 42.125 26.1094 42.4219ZM25.4062 40.8984C25.8906 40.6953 26.3281 40.4375 26.7188 40.125C27.125 39.8125 27.4688 39.4688 27.75 39.0938C28.0312 38.7188 28.25 38.3281 28.4062 37.9219C28.5625 37.5 28.6406 37.0781 28.6406 36.6562C28.6406 36.1875 28.5234 35.8359 28.2891 35.6016C28.0547 35.3516 27.7812 35.2266 27.4688 35.2266C27.0469 35.2266 26.6875 35.3438 26.3906 35.5781C26.0938 35.8125 25.8516 36.1172 25.6641 36.4922C25.4766 36.8672 25.3359 37.2891 25.2422 37.7578C25.1641 38.2109 25.125 38.6641 25.125 39.1172C25.125 39.3984 25.1484 39.6953 25.1953 40.0078C25.2578 40.3203 25.3281 40.6172 25.4062 40.8984ZM43.3594 42.375C42.8125 43.2656 42.1719 43.9688 41.4375 44.4844C40.7188 45 39.9922 45.2578 39.2578 45.2578C38.6641 45.2578 38.1328 45.1484 37.6641 44.9297C37.1953 44.7109 36.7891 44.4062 36.4453 44.0156C36.1016 43.6094 35.8359 43.125 35.6484 42.5625C35.4766 42 35.3906 41.3672 35.3906 40.6641C35.3906 39.5703 35.4922 38.6016 35.6953 37.7578C35.9141 36.9141 36.1484 36.2109 36.3984 35.6484C36.6484 35.0703 36.8828 34.6328 37.1016 34.3359C37.3203 34.0391 37.4297 33.8906 37.4297 33.8906C37.5078 33.7969 37.6016 33.7266 37.7109 33.6797C37.8359 33.6328 37.9609 33.6094 38.0859 33.6094C38.3359 33.6094 38.5391 33.7031 38.6953 33.8906C38.8672 34.0625 38.9531 34.2656 38.9531 34.5C38.9531 34.5938 38.9297 34.6875 38.8828 34.7812C38.8516 34.875 38.8125 34.9688 38.7656 35.0625C38.6875 35.2031 38.5625 35.4219 38.3906 35.7188C38.2188 36 38.0391 36.375 37.8516 36.8438C37.6641 37.3125 37.5 37.8672 37.3594 38.5078C37.2188 39.1328 37.1484 39.8516 37.1484 40.6641C37.1484 41.5859 37.3281 42.2891 37.6875 42.7734C38.0625 43.2422 38.5859 43.4766 39.2578 43.4766C39.5391 43.4766 39.8594 43.3906 40.2188 43.2188C40.5938 43.0312 40.9531 42.75 41.2969 42.375C41.6562 42 41.9688 41.5234 42.2344 40.9453C42.5 40.3672 42.6719 39.6875 42.75 38.9062L43.1016 34.875C43.1328 34.6406 43.2344 34.4453 43.4062 34.2891C43.5781 34.1328 43.7812 34.0547 44.0156 34.0547C44.2812 34.0547 44.4922 34.1562 44.6484 34.3594C44.8047 34.5469 44.8828 34.7656 44.8828 35.0156L44.5781 38.9062C44.5469 39.2344 44.5547 39.6641 44.6016 40.1953C44.6641 40.7266 44.7812 41.25 44.9531 41.7656C45.125 42.2812 45.3828 42.7266 45.7266 43.1016C46.0703 43.4609 46.5234 43.6406 47.0859 43.6406C47.4922 43.6406 47.8906 43.5391 48.2812 43.3359C48.6719 43.1172 49.0469 42.8359 49.4062 42.4922C49.7656 42.1484 50.0938 41.7656 50.3906 41.3438C50.7031 40.9062 50.9844 40.4688 51.2344 40.0312C51.5 39.5938 51.7266 39.1797 51.9141 38.7891C52.1016 38.3828 52.2578 38.0391 52.3828 37.7578C52.4609 37.5859 52.5703 37.4531 52.7109 37.3594C52.8516 37.2656 53.0078 37.2188 53.1797 37.2188C53.4609 37.2188 53.6797 37.3125 53.8359 37.5C53.9922 37.6875 54.0703 37.8906 54.0703 38.1094C54.0703 38.2344 54.0469 38.3516 54 38.4609C53.9375 38.5859 53.8125 38.8516 53.625 39.2578C53.4531 39.6484 53.2188 40.1016 52.9219 40.6172C52.6406 41.1172 52.2969 41.6484 51.8906 42.2109C51.4844 42.7734 51.0312 43.2969 50.5312 43.7812C50.0312 44.25 49.4844 44.6406 48.8906 44.9531C48.3125 45.25 47.6875 45.3984 47.0156 45.3984C46.0938 45.3984 45.3281 45.1406 44.7188 44.625C44.1094 44.0938 43.6562 43.3438 43.3594 42.375ZM54.8672 35.3672C54.8047 35.7891 54.7266 36.1875 54.6328 36.5625C54.5391 36.9219 54.4453 37.2422 54.3516 37.5234C54.2734 37.7891 54.2031 38.0078 54.1406 38.1797C54.0781 38.3516 54.0391 38.4453 54.0234 38.4609C53.8672 38.8203 53.5938 39 53.2031 39C52.9844 39 52.7812 38.9219 52.5938 38.7656C52.4062 38.5938 52.3125 38.3828 52.3125 38.1328C52.3125 38.0391 52.3281 37.9688 52.3594 37.9219C52.3906 37.875 52.4375 37.7812 52.5 37.6406C52.5625 37.5 52.6406 37.2656 52.7344 36.9375C52.8281 36.6094 52.9453 36.1016 53.0859 35.4141C52.8203 35.4141 52.5469 35.4062 52.2656 35.3906C51.9844 35.375 51.7266 35.3203 51.4922 35.2266C51.2422 35.1328 51.0391 34.9844 50.8828 34.7812C50.7266 34.5781 50.6484 34.2969 50.6484 33.9375C50.6484 33.6719 50.7266 33.3125 50.8828 32.8594C51.0234 32.4062 51.2188 31.9609 51.4688 31.5234C51.7188 31.0859 52 30.7109 52.3125 30.3984C52.625 30.0703 52.9375 29.9062 53.25 29.9062C53.6094 29.9062 53.8984 30.0391 54.1172 30.3047C54.3516 30.5703 54.5312 30.8984 54.6562 31.2891C54.7812 31.6641 54.8672 32.0625 54.9141 32.4844C54.9766 32.9062 55.0078 33.2734 55.0078 33.5859C55.2734 33.5859 55.5312 33.5859 55.7812 33.5859C56.0469 33.5703 56.2969 33.5625 56.5312 33.5625C57.4219 33.5625 58.1016 33.7578 58.5703 34.1484C59.0391 34.5391 59.2734 35.1797 59.2734 36.0703C59.2734 36.4297 59.25 36.8047 59.2031 37.1953C59.1562 37.5859 59.1016 37.9922 59.0391 38.4141C58.9766 38.8203 58.9219 39.2266 58.875 39.6328C58.8281 40.0391 58.8047 40.4375 58.8047 40.8281C58.8047 41.3906 58.8828 41.8594 59.0391 42.2344C59.1953 42.5938 59.3906 42.8828 59.625 43.1016C59.8594 43.3203 60.1094 43.4766 60.375 43.5703C60.6406 43.6484 60.8828 43.6875 61.1016 43.6875C61.7734 43.6875 62.4062 43.4688 63 43.0312C63.5938 42.5938 64.1406 42.0703 64.6406 41.4609C65.1406 40.8359 65.5859 40.1797 65.9766 39.4922C66.3828 38.8047 66.7188 38.2031 66.9844 37.6875C67.0625 37.5469 67.1719 37.4375 67.3125 37.3594C67.4531 37.2812 67.6016 37.2422 67.7578 37.2422C68.0391 37.2422 68.2578 37.3359 68.4141 37.5234C68.5703 37.6953 68.6484 37.8906 68.6484 38.1094C68.6484 38.2656 68.6172 38.4062 68.5547 38.5312C68.1953 39.1719 67.7734 39.8984 67.2891 40.7109C66.8203 41.5078 66.2812 42.2578 65.6719 42.9609C65.0625 43.6641 64.375 44.2578 63.6094 44.7422C62.8594 45.2266 62.0312 45.4688 61.125 45.4688C60.5625 45.4688 60.0312 45.3594 59.5312 45.1406C59.0312 44.9375 58.5938 44.6406 58.2188 44.25C57.8594 43.8438 57.5703 43.3516 57.3516 42.7734C57.1328 42.1797 57.0234 41.5156 57.0234 40.7812C57.0234 40 57.1016 39.2266 57.2578 38.4609C57.4141 37.6797 57.4922 36.9375 57.4922 36.2344C57.4922 35.9375 57.4219 35.7188 57.2812 35.5781C57.1562 35.4219 56.8672 35.3438 56.4141 35.3438C56.1953 35.3438 55.9531 35.3438 55.6875 35.3438C55.4375 35.3438 55.1641 35.3516 54.8672 35.3672ZM53.2969 33.6328C53.2969 33.5234 53.2891 33.3828 53.2734 33.2109C53.2734 33.0234 53.2578 32.8438 53.2266 32.6719C53.2109 32.5 53.1797 32.3516 53.1328 32.2266C53.1016 32.1016 53.0625 32.0391 53.0156 32.0391C52.9688 32.0391 52.9062 32.1016 52.8281 32.2266C52.7656 32.3359 52.6953 32.4766 52.6172 32.6484C52.5391 32.8047 52.4688 32.9766 52.4062 33.1641C52.3438 33.3516 52.2969 33.5078 52.2656 33.6328H53.2969Z" fill="#674636"/>
<path d="M49.2988 56.4922C49.1348 56.4922 48.9746 56.5156 48.8184 56.5625C48.666 56.6094 48.5098 56.6914 48.3496 56.8086C48.1934 56.9258 48.0566 57.0742 47.9395 57.2539C47.8223 57.4297 47.7266 57.6641 47.6523 57.957C47.5781 58.2461 47.541 58.5742 47.541 58.9414C47.541 60.6797 48.1309 61.5488 49.3105 61.5488C49.8105 61.5488 50.2031 61.3145 50.4883 60.8457C50.7773 60.373 50.9219 59.7422 50.9219 58.9531C50.9219 58.2461 50.7734 57.6602 50.4766 57.1953C50.1797 56.7266 49.7871 56.4922 49.2988 56.4922ZM46.7324 62V53.252H47.5703V55.543V56.9316C47.7383 56.5879 47.9883 56.3281 48.3203 56.1523C48.6523 55.9727 49.0293 55.8828 49.4512 55.8828C50.1777 55.8828 50.7441 56.1641 51.1504 56.7266C51.5605 57.2891 51.7656 58.0664 51.7656 59.0586C51.7656 59.9922 51.5586 60.7402 51.1445 61.3027C50.7344 61.8613 50.1523 62.1406 49.3984 62.1406C48.9648 62.1406 48.5762 62.0469 48.2324 61.8594C47.8926 61.6719 47.6504 61.4043 47.5059 61.0566L47.3945 62H46.7324ZM56.6875 60.7168V59.041L56.1133 59.1289C55.8047 59.1758 55.5527 59.2188 55.3574 59.2578C55.1621 59.293 54.959 59.3379 54.748 59.3926C54.5371 59.4434 54.3711 59.5 54.25 59.5625C54.1289 59.6211 54.0156 59.6934 53.9102 59.7793C53.8086 59.8613 53.7363 59.957 53.6934 60.0664C53.6504 60.1758 53.6289 60.3027 53.6289 60.4473C53.6289 61.1973 54 61.5723 54.7422 61.5723C55.3633 61.5723 56.0117 61.2871 56.6875 60.7168ZM56.834 62L56.7344 61.3203C56.0664 61.8672 55.3535 62.1406 54.5957 62.1406C54.0957 62.1406 53.6777 62.0039 53.3418 61.7305C53.0098 61.4531 52.8438 61.0645 52.8438 60.5645C52.8438 60.3535 52.875 60.1641 52.9375 59.9961C53.0039 59.8242 53.0801 59.6797 53.166 59.5625C53.252 59.4414 53.3867 59.332 53.5703 59.2344C53.7539 59.1328 53.9141 59.0547 54.0508 59C54.1914 58.9414 54.4004 58.8828 54.6777 58.8242C54.9551 58.7617 55.1777 58.7168 55.3457 58.6895C55.5137 58.6582 55.7676 58.6172 56.1074 58.5664L56.6875 58.4785V58.2324C56.6875 57.5801 56.5801 57.1328 56.3652 56.8906C56.1504 56.6445 55.7852 56.5215 55.2695 56.5215C54.9336 56.5215 54.6172 56.5859 54.3203 56.7148C54.0273 56.8438 53.7832 57.0293 53.5879 57.2715C53.5879 57.2676 53.4219 57.1094 53.0898 56.7969C53.5703 56.1875 54.3125 55.8828 55.3164 55.8828C56.7852 55.8828 57.5195 56.6074 57.5195 58.0566V62H56.834ZM62.9629 56.0059H63.9121L61.6797 58.1855L64.2578 62H63.3203L61.1348 58.6895L59.8867 59.8379V62H59.0547V53.3457H59.8809V59.0059L62.9629 56.0059ZM67.3164 55.8828C67.7227 55.8828 68.0801 55.9551 68.3887 56.0996C68.7012 56.2402 68.9512 56.4395 69.1387 56.6973C69.3262 56.9512 69.4668 57.2461 69.5605 57.582C69.6543 57.918 69.7012 58.2891 69.7012 58.6953C69.7012 58.8281 69.6953 58.9453 69.6836 59.0469H65.5879C65.5879 59.3867 65.6211 59.7031 65.6875 59.9961C65.7539 60.2852 65.8535 60.5469 65.9863 60.7812C66.123 61.0117 66.3066 61.1934 66.5371 61.3262C66.7715 61.459 67.041 61.5254 67.3457 61.5254C67.7402 61.5254 68.0645 61.4355 68.3184 61.2559C68.5723 61.0723 68.752 60.8164 68.8574 60.4883L69.502 60.6289C69.4121 60.9609 69.2539 61.2441 69.0273 61.4785C68.8008 61.709 68.5469 61.877 68.2656 61.9824C67.9844 62.084 67.6855 62.1367 67.3691 62.1406H67.3457C66.9043 62.1406 66.5117 62.0547 66.168 61.8828C65.8281 61.7109 65.5547 61.4785 65.3477 61.1855C65.1445 60.8887 64.9922 60.5566 64.8906 60.1895C64.7891 59.8184 64.7383 59.4219 64.7383 59C64.7383 58.0664 64.9648 57.3145 65.418 56.7441C65.875 56.1699 66.5078 55.8828 67.3164 55.8828ZM68.8984 58.502C68.8945 57.8613 68.7617 57.3652 68.5 57.0137C68.2383 56.6621 67.8359 56.4863 67.293 56.4863C67.0312 56.4863 66.7969 56.5391 66.5898 56.6445C66.3828 56.75 66.2109 56.8965 66.0742 57.084C65.9414 57.2715 65.8359 57.4844 65.7578 57.7227C65.6797 57.9609 65.6289 58.2207 65.6055 58.502H68.8984ZM71.7461 56.0059V57.1309C71.8555 56.8613 72.0137 56.6387 72.2207 56.4629C72.4277 56.2832 72.6387 56.1621 72.8535 56.0996C73.0723 56.0332 73.3008 56 73.5391 56V56.7559C73.2148 56.7559 72.9336 56.8145 72.6953 56.9316C72.4609 57.0488 72.2773 57.2109 72.1445 57.418C72.0156 57.625 71.9199 57.8496 71.8574 58.0918C71.7988 58.334 71.7695 58.5977 71.7695 58.8828V62H70.9375V56.0059H71.7461ZM76.1406 61.625L73.8438 56.0059H74.6992C74.6992 56.0059 74.8105 56.293 75.0332 56.8672C75.2559 57.4375 75.5234 58.123 75.8359 58.9238C76.1484 59.7246 76.3906 60.3379 76.5625 60.7637C76.8984 59.8887 77.5176 58.3027 78.4199 56.0059H79.2402C78.9707 56.6895 78.582 57.6582 78.0742 58.9121C77.5703 60.166 77.2344 61.0059 77.0664 61.4316C76.9258 61.7871 76.8027 62.0742 76.6973 62.293C76.5957 62.5156 76.4727 62.7383 76.3281 62.9609C76.1836 63.1836 76.0352 63.3535 75.8828 63.4707C75.7344 63.5918 75.5547 63.6895 75.3438 63.7637C75.1328 63.8379 74.8965 63.875 74.6348 63.875C74.4277 63.875 74.2227 63.8477 74.0195 63.793L74.1074 63.1309C74.2871 63.1582 74.459 63.1719 74.623 63.1719C75.2832 63.1719 75.7441 62.7871 76.0059 62.0176L76.1406 61.625Z" fill="#674636"/>
</svg>
